<svg xmlns="http://www.w3.org/2000/svg" width="1200" height="650" viewBox="0 0 1200 650">
<rect width="1200" height="650" rx="22" fill="#08111d"/>
<rect x="1" y="1" width="1198" height="648" rx="21" fill="none" stroke="#17324f"/>
<text x="38" y="48" font-family="Segoe UI,Arial" font-size="28" font-weight="700" fill="#e8eef7">PROFILE TELEMETRY</text>
<text x="38" y="72" font-family="Segoe UI,Arial" font-size="12" fill="#8da1b8">@Wesleyk7</text>
<rect x="38" y="96" width="1124" height="112" rx="16" fill="#0b1624" stroke="#17324f"/>
<text x="62" y="128" font-family="Segoe UI,Arial" font-size="15" font-weight="700" fill="#e8eef7">ESTUDANDO AGORA</text>
<rect x="62" y="165" width="220" height="30" rx="15" fill="#0d1a2a" stroke="#ff8a24" stroke-opacity=".8"/>
<circle cx="78" cy="180" r="4" fill="#ff8a24"/>
<text x="92" y="184" font-family="Segoe UI,Arial" font-size="12" font-weight="600" fill="#e8eef7">HTML</text>
<text x="266" y="184" text-anchor="end" font-family="Segoe UI,Arial" font-size="11" fill="#8da1b8">estudando</text>
<rect x="294" y="165" width="220" height="30" rx="15" fill="#0d1a2a" stroke="#49c7ff" stroke-opacity=".8"/>
<circle cx="310" cy="180" r="4" fill="#49c7ff"/>
<text x="324" y="184" font-family="Segoe UI,Arial" font-size="12" font-weight="600" fill="#e8eef7">CSS</text>
<text x="498" y="184" text-anchor="end" font-family="Segoe UI,Arial" font-size="11" fill="#8da1b8">estudando</text>
<rect x="526" y="165" width="220" height="30" rx="15" fill="#0d1a2a" stroke="#42d17d" stroke-opacity=".8"/>
<circle cx="542" cy="180" r="4" fill="#42d17d"/>
<text x="556" y="184" font-family="Segoe UI,Arial" font-size="12" font-weight="600" fill="#e8eef7">Python</text>
<text x="730" y="184" text-anchor="end" font-family="Segoe UI,Arial" font-size="11" fill="#8da1b8">básico</text>
<rect x="758" y="165" width="250" height="30" rx="15" fill="#0d1a2a" stroke="#238cff" stroke-opacity=".8"/>
<circle cx="774" cy="180" r="4" fill="#238cff"/>
<text x="788" y="184" font-family="Segoe UI,Arial" font-size="12" font-weight="600" fill="#e8eef7">Git &amp; GitHub</text>
<text x="992" y="184" text-anchor="end" font-family="Segoe UI,Arial" font-size="11" fill="#8da1b8">praticando</text>
<rect x="38" y="232" width="540" height="252" rx="16" fill="#0b1624" stroke="#17324f"/>
<text x="62" y="264" font-family="Segoe UI,Arial" font-size="15" font-weight="700" fill="#e8eef7">LANGUAGE TELEMETRY</text>
<text x="62" y="324" font-family="Segoe UI,Arial" font-size="14" font-weight="600" fill="#e8eef7">JavaScript</text>
<rect x="180" y="311" width="330" height="12" rx="6" fill="#12263d"/>
<rect x="180" y="311" width="135.1" height="12" rx="6" fill="#238cff"/>
<text x="520" y="324" text-anchor="end" font-family="Segoe UI,Arial" font-size="12" fill="#8da1b8">40.9%</text>
<text x="62" y="358" font-family="Segoe UI,Arial" font-size="14" font-weight="600" fill="#e8eef7">HTML</text>
<rect x="180" y="345" width="330" height="12" rx="6" fill="#12263d"/>
<rect x="180" y="345" width="85.5" height="12" rx="6" fill="#ff8a24"/>
<text x="520" y="358" text-anchor="end" font-family="Segoe UI,Arial" font-size="12" fill="#8da1b8">25.9%</text>
<text x="62" y="392" font-family="Segoe UI,Arial" font-size="14" font-weight="600" fill="#e8eef7">Python</text>
<rect x="180" y="379" width="330" height="12" rx="6" fill="#12263d"/>
<rect x="180" y="379" width="72.9" height="12" rx="6" fill="#49c7ff"/>
<text x="520" y="392" text-anchor="end" font-family="Segoe UI,Arial" font-size="12" fill="#8da1b8">22.1%</text>
<text x="62" y="426" font-family="Segoe UI,Arial" font-size="14" font-weight="600" fill="#e8eef7">CSS</text>
<rect x="180" y="413" width="330" height="12" rx="6" fill="#12263d"/>
<rect x="180" y="413" width="36.5" height="12" rx="6" fill="#8a63ff"/>
<text x="520" y="426" text-anchor="end" font-family="Segoe UI,Arial" font-size="12" fill="#8da1b8">11.1%</text>
<rect x="596" y="232" width="566" height="252" rx="16" fill="#0b1624" stroke="#17324f"/>
<text x="620" y="264" font-family="Segoe UI,Arial" font-size="15" font-weight="700" fill="#e8eef7">MEU MOMENTO</text>
<text x="620" y="322" font-family="Segoe UI,Arial" font-size="12" font-weight="700" fill="#49c7ff">CONHECIMENTOS ATUAIS</text>
<circle cx="628" cy="344" r="4" fill="#42d17d"/>
<text x="642" y="348" font-family="Segoe UI,Arial" font-size="13" fill="#e8eef7">HTML</text>
<text x="840" y="348" font-family="Segoe UI,Arial" font-size="11" fill="#8da1b8">estudando</text>
<circle cx="628" cy="372" r="4" fill="#42d17d"/>
<text x="642" y="376" font-family="Segoe UI,Arial" font-size="13" fill="#e8eef7">CSS</text>
<text x="840" y="376" font-family="Segoe UI,Arial" font-size="11" fill="#8da1b8">estudando</text>
<circle cx="628" cy="400" r="4" fill="#42d17d"/>
<text x="642" y="404" font-family="Segoe UI,Arial" font-size="13" fill="#e8eef7">Python</text>
<text x="840" y="404" font-family="Segoe UI,Arial" font-size="11" fill="#8da1b8">básico</text>
<circle cx="628" cy="428" r="4" fill="#42d17d"/>
<text x="642" y="432" font-family="Segoe UI,Arial" font-size="13" fill="#e8eef7">Git &amp; GitHub</text>
<text x="840" y="432" font-family="Segoe UI,Arial" font-size="11" fill="#8da1b8">praticando</text>
<text x="905" y="322" font-family="Segoe UI,Arial" font-size="12" font-weight="700" fill="#ff8a24">INTERESSES</text>
<rect x="875" y="338" width="122" height="30" rx="15" fill="#0d1a2a" stroke="#ff8a24" stroke-opacity=".7"/>
<text x="936" y="358" text-anchor="middle" font-family="Segoe UI,Arial" font-size="9" font-weight="600" fill="#e8eef7">Suporte Técnico</text>
<rect x="1005" y="338" width="122" height="30" rx="15" fill="#0d1a2a" stroke="#ff8a24" stroke-opacity=".7"/>
<text x="1066" y="358" text-anchor="middle" font-family="Segoe UI,Arial" font-size="9" font-weight="600" fill="#e8eef7">Infraestrutura</text>
<rect x="875" y="380" width="122" height="30" rx="15" fill="#0d1a2a" stroke="#ff8a24" stroke-opacity=".7"/>
<text x="936" y="400" text-anchor="middle" font-family="Segoe UI,Arial" font-size="9" font-weight="600" fill="#e8eef7">Desenvolvimento Web</text>
<rect x="1005" y="380" width="122" height="30" rx="15" fill="#0d1a2a" stroke="#ff8a24" stroke-opacity=".7"/>
<text x="1066" y="400" text-anchor="middle" font-family="Segoe UI,Arial" font-size="9" font-weight="600" fill="#e8eef7">Full Stack</text>
<rect x="875" y="422" width="252" height="30" rx="15" fill="#0d1a2a" stroke="#ff8a24" stroke-opacity=".7"/>
<text x="1001" y="442" text-anchor="middle" font-family="Segoe UI,Arial" font-size="9" font-weight="600" fill="#e8eef7">Inteligência Artificial e Dados</text>
<rect x="38" y="510" width="1124" height="112" rx="16" fill="#0b1624" stroke="#17324f"/>
<text x="62" y="540" font-family="Segoe UI,Arial" font-size="15" font-weight="700" fill="#e8eef7">ACTIVITY PULSE • 12 MESES</text>
<rect x="62.0" y="599.0" width="48.5" height="3.0" rx="4" fill="#238cff"/>
<text x="86.2" y="616" text-anchor="middle" font-family="Segoe UI,Arial" font-size="10" fill="#8da1b8">Oct</text>
<rect x="118.5" y="599.0" width="48.5" height="3.0" rx="4" fill="#238cff"/>
<text x="142.8" y="616" text-anchor="middle" font-family="Segoe UI,Arial" font-size="10" fill="#8da1b8">Nov</text>
<rect x="175.0" y="599.0" width="48.5" height="3.0" rx="4" fill="#238cff"/>
<text x="199.2" y="616" text-anchor="middle" font-family="Segoe UI,Arial" font-size="10" fill="#8da1b8">Dec</text>
<rect x="231.5" y="599.0" width="48.5" height="3.0" rx="4" fill="#238cff"/>
<text x="255.8" y="616" text-anchor="middle" font-family="Segoe UI,Arial" font-size="10" fill="#8da1b8">Jan</text>
<rect x="288.0" y="599.0" width="48.5" height="3.0" rx="4" fill="#238cff"/>
<text x="312.2" y="616" text-anchor="middle" font-family="Segoe UI,Arial" font-size="10" fill="#8da1b8">Feb</text>
<rect x="344.5" y="599.0" width="48.5" height="3.0" rx="4" fill="#238cff"/>
<text x="368.8" y="616" text-anchor="middle" font-family="Segoe UI,Arial" font-size="10" fill="#8da1b8">Mar</text>
<rect x="401.0" y="599.0" width="48.5" height="3.0" rx="4" fill="#238cff"/>
<text x="425.2" y="616" text-anchor="middle" font-family="Segoe UI,Arial" font-size="10" fill="#8da1b8">Apr</text>
<rect x="457.5" y="599.0" width="48.5" height="3.0" rx="4" fill="#238cff"/>
<text x="481.8" y="616" text-anchor="middle" font-family="Segoe UI,Arial" font-size="10" fill="#8da1b8">May</text>
<rect x="514.0" y="599.0" width="48.5" height="3.0" rx="4" fill="#ff8a24"/>
<text x="538.2" y="616" text-anchor="middle" font-family="Segoe UI,Arial" font-size="10" fill="#8da1b8">Jun</text>
<rect x="570.5" y="599.0" width="48.5" height="3.0" rx="4" fill="#ff8a24"/>
<text x="594.8" y="616" text-anchor="middle" font-family="Segoe UI,Arial" font-size="10" fill="#8da1b8">Jul</text>
<rect x="627.0" y="595.0" width="48.5" height="7.0" rx="4" fill="#ff8a24"/>
<text x="651.2" y="616" text-anchor="middle" font-family="Segoe UI,Arial" font-size="10" fill="#8da1b8">Aug</text>
<rect x="683.5" y="558.0" width="48.5" height="44.0" rx="4" fill="#ff8a24"/>
<text x="707.8" y="616" text-anchor="middle" font-family="Segoe UI,Arial" font-size="10" fill="#8da1b8">Sep</text>
<text x="790" y="540" font-family="Segoe UI,Arial" font-size="15" font-weight="700" fill="#e8eef7">RECENT PROJECTS</text>
<text x="790" y="566" font-family="Segoe UI,Arial" font-size="12" font-weight="600" fill="#e8eef7">Wesleyk7</text>
<text x="790" y="584" font-family="Segoe UI,Arial" font-size="12" font-weight="600" fill="#e8eef7">BookShelf</text>
<text x="790" y="602" font-family="Segoe UI,Arial" font-size="12" font-weight="600" fill="#e8eef7">today-i-learned</text>
</svg>